<?xml version="1.0" standalone="no"?>
<!DOCTYPE svg PUBLIC "-//W3C//DTD SVG 20010904//EN"
 "http://www.w3.org/TR/2001/REC-SVG-20010904/DTD/svg10.dtd">
<svg version="1.0" xmlns="http://www.w3.org/2000/svg"
 width="40.000000pt" height="40.000000pt" viewBox="0 0 40.000000 40.000000"
 preserveAspectRatio="xMidYMid meet">

<g transform="translate(0.000000,40.000000) scale(0.100000,-0.100000)"
fill="#000000" stroke="none">
<path d="M149 371 c-61 -20 -106 -73 -123 -144 -14 -60 32 -150 93 -182 51
-26 96 -28 145 -6 58 25 60 43 4 39 -34 -2 -43 -7 -42 -20 1 -10 -2 -18 -7
-18 -5 0 -9 72 -9 160 0 98 4 160 10 160 5 0 28 -7 50 -16 52 -21 63 -12 14
11 -44 21 -99 27 -135 16z m-8 -43 c-13 -22 -29 -34 -48 -36 l-28 -4 25 27
c21 22 49 41 68 44 2 1 -5 -14 -17 -31z m49 -3 c0 -31 -3 -35 -25 -35 -14 0
-25 4 -25 9 0 9 39 61 46 61 2 0 4 -16 4 -35z m-80 -75 c0 -28 -3 -30 -35 -30
-39 0 -39 -1 -25 34 7 19 17 26 35 26 21 0 25 -5 25 -30z m80 0 c0 -28 -3 -30
-35 -30 -24 0 -35 5 -35 14 0 32 13 46 41 46 26 0 29 -4 29 -30z m-80 -80 c0
-26 -3 -30 -29 -30 -28 0 -41 14 -41 46 0 9 11 14 35 14 32 0 35 -2 35 -30z
m80 -1 c0 -28 -2 -30 -32 -27 -28 2 -34 8 -36 31 -3 25 -1 27 32 27 33 0 36
-2 36 -31z m-53 -79 c27 -50 9 -54 -42 -9 -42 37 -44 49 -7 49 21 0 32 -9 49
-40z m53 -2 l-1 -43 -24 30 c-32 38 -32 55 0 55 23 0 25 -4 25 -42z"/>
<path d="M346 351 c-4 -7 -5 -15 -2 -18 9 -9 19 4 14 18 -4 11 -6 11 -12 0z"/>
<path d="M227 303 c-17 -17 -2 -23 58 -23 62 0 84 11 49 24 -21 8 -99 8 -107
-1z"/>
<path d="M227 254 c-16 -16 9 -24 74 -24 55 0 69 3 69 15 0 12 -14 15 -68 15
-38 0 -72 -3 -75 -6z"/>
<path d="M335 200 c-4 -6 5 -10 19 -10 14 0 26 5 26 10 0 6 -9 10 -19 10 -11
0 -23 -4 -26 -10z"/>
<path d="M220 110 c0 -6 28 -10 65 -10 37 0 65 4 65 10 0 6 -28 10 -65 10 -37
0 -65 -4 -65 -10z"/>
<path d="M340 55 c0 -8 5 -15 10 -15 6 0 10 7 10 15 0 8 -4 15 -10 15 -5 0
-10 -7 -10 -15z"/>
</g>
</svg>
